{
  "accessors": [
    {
      "bufferView": 2,
      "componentType": 5126,
      "count": 3293,
      "max": [
        8.505566596984863,
        22.398855209350586,
        13.445575714111328
      ],
      "min": [
        1.9677129983901978,
        -21.190189361572266,
        -10.536188125610352
      ],
      "type": "VEC3"
    },
    {
      "bufferView": 2,
      "byteOffset": 39516,
      "componentType": 5126,
      "count": 3293,
      "max": [
        1.0,
        1.0,
        1.0
      ],
      "min": [
        -1.0,
        -1.0,
        -1.0
      ],
      "type": "VEC3"
    },
    {
      "bufferView": 3,
      "componentType": 5126,
      "count": 3293,
      "max": [
        1.0,
        0.9996779561042786,
        0.9999997615814209,
        1.0
      ],
      "min": [
        -1.0,
        -1.0,
        -0.9999999403953552,
        1.0
      ],
      "type": "VEC4"
    },
    {
      "bufferView": 1,
      "componentType": 5126,
      "count": 3293,
      "max": [
        0.9929550290107727,
        0.9906060099601746
      ],
      "min": [
        0.007015999872237444,
        0.01001999992877245
      ],
      "type": "VEC2"
    },
    {
      "bufferView": 0,
      "componentType": 5125,
      "count": 7332,
      "type": "SCALAR"
    }
  ],
  "asset": {
    "extras": {
      "author": "Yannoob (https://sketchfab.com/Yannoob)",
      "license": "CC-BY-ND-4.0 (http://creativecommons.org/licenses/by-nd/4.0/)",
      "source": "https://sketchfab.com/3d-models/guna-xshot-8eca859a89ee433fb3073b2f7e5fc823",
      "title": "GunA_X.Shot"
    },
    "generator": "Sketchfab-12.68.0",
    "version": "2.0"
  },
  "bufferViews": [
    {
      "buffer": 0,
      "byteLength": 29328,
      "name": "floatBufferViews",
      "target": 34963
    },
    {
      "buffer": 0,
      "byteLength": 26344,
      "byteOffset": 29328,
      "byteStride": 8,
      "name": "floatBufferViews",
      "target": 34962
    },
    {
      "buffer": 0,
      "byteLength": 79032,
      "byteOffset": 55672,
      "byteStride": 12,
      "name": "floatBufferViews",
      "target": 34962
    },
    {
      "buffer": 0,
      "byteLength": 52688,
      "byteOffset": 134704,
      "byteStride": 16,
      "name": "floatBufferViews",
      "target": 34962
    }
  ],
  "buffers": [
    {
      "byteLength": 187392,
      "uri": "scene.bin"
    }
  ],
  "images": [
    {
      "uri": "textures/wire_115115115_baseColor.png"
    },
    {
      "uri": "textures/wire_115115115_metallicRoughness.png"
    },
    {
      "uri": "textures/wire_115115115_normal.png"
    }
  ],
  "materials": [
    {
      "doubleSided": true,
      "name": "wire_115115115",
      "normalTexture": {
        "index": 2
      },
      "occlusionTexture": {
        "index": 1
      },
      "pbrMetallicRoughness": {
        "baseColorTexture": {
          "index": 0
        },
        "metallicRoughnessTexture": {
          "index": 1
        }
      }
    }
  ],
  "meshes": [
    {
      "name": "Object_0",
      "primitives": [
        {
          "attributes": {
            "NORMAL": 1,
            "POSITION": 0,
            "TANGENT": 2,
            "TEXCOORD_0": 3
          },
          "indices": 4,
          "material": 0,
          "mode": 4
        }
      ]
    }
  ],
  "nodes": [
    {
      "children": [
        1
      ],
      "matrix": [
        0.011248732917010784,
        0.0,
        0.0,
        0.0,
        0.0,
        2.4977204564648546e-18,
        -0.011248732917010784,
        0.0,
        0.0,
        0.011248732917010784,
        2.4977204564648546e-18,
        0.0,
        0.0,
        0.0,
        0.0,
        1.0
      ],
      "name": "Sketchfab_model"
    },
    {
      "children": [
        2
      ],
      "name": "aa02dd444f1d46a49f24b75ad96cb45d.obj.cleaner.materialmerger.gles"
    },
    {
      "mesh": 0,
      "name": "Object_2"
    }
  ],
  "samplers": [
    {
      "magFilter": 9729,
      "minFilter": 9987,
      "wrapS": 10497,
      "wrapT": 10497
    }
  ],
  "scene": 0,
  "scenes": [
    {
      "name": "Sketchfab_Scene",
      "nodes": [
        0
      ]
    }
  ],
  "textures": [
    {
      "sampler": 0,
      "source": 0
    },
    {
      "sampler": 0,
      "source": 1
    },
    {
      "sampler": 0,
      "source": 2
    }
  ]
}
